<svg xmlns="http://www.w3.org/2000/svg" width="252" height="37"><path fill="#DF0336" d="M0 .06C5.07.2 10.12-.3 15.12.28c5.17.6 7.92 4.34 7.67 9.9-.23 4.6-3.68 8.03-8.5 8.26-2.62.12-5.25.02-8.03.02v10.3H0V.06zM6.3 13.6c1.66 0 3.2.02 4.74 0a17.5 17.5 0 0 0 1.94-.16c2.34-.27 3.6-1.6 3.67-3.87.1-2.5-.9-3.92-3.3-4.36-2.32-.4-4.66-.14-7.04-.2v8.6zM108.98.12h20.14v5.3h-13.74v6.54h11.87v4.96H115.3v11.86h-6.33V.12zM30.9 14.36h-5.7c.2-2.8 1.5-4.84 4.05-5.86 3.82-1.55 7.73-1.52 11.58-.1 2.1.77 3.26 2.4 3.28 4.7.04 3.8.03 7.6.04 11.4 0 1.44.12 2.85.68 4.32-1.87 0-3.67 0-5.47 0-.4 0-.42-.28-.48-.56-.08-.4-.17-.78-.26-1.17-.3-.08-.43.2-.6.33-3.05 2.14-6.35 2.53-9.8 1.3-2.6-.9-3.68-2.92-3.62-6.1.05-2.48 1.36-4.22 3.85-5.12 1.94-.7 4-.8 6-1.08.86-.12 1.72-.23 2.53-.54.86-.33 1.4-.87 1.4-1.85 0-1.17-.44-2.07-1.38-2.4-1.4-.5-2.85-.54-4.26.02-1.2.47-1.6 1.56-1.82 2.7zm7.44 4.43c-1.08.5-2.13.68-3.2.82-.94.12-1.9.25-2.8.58-1.53.57-2.14 1.52-2 3.12.12 1.2.94 1.9 2.5 2.14 3.02.47 5.22-1.04 5.48-3.8.1-.9 0-1.84 0-2.87zm145.34 10.03c-1.83 0-3.58-.02-5.33 0-.4 0-.54-.2-.6-.54-.07-.4-.16-.8-.25-1.2-.15-.12-.27 0-.38.1-2.77 2.23-5.94 2.62-9.28 1.8-2.77-.66-4.32-2.76-4.4-5.66-.1-2.98 1.2-4.87 3.97-5.86 1.93-.68 3.94-.78 5.93-1.06.82-.1 1.65-.22 2.44-.52.8-.3 1.4-.75 1.46-1.7.05-1.06-.18-2.04-1.23-2.48-1.53-.65-3.13-.68-4.66.07-1.05.5-1.37 1.5-1.53 2.56h-5.7c.23-3.17 1.88-5.3 4.97-6.25 3.2-.97 6.46-.97 9.68-.06 3.03.87 4.2 2.56 4.24 5.7.03 4.16-.16 8.33.1 12.5.07.87.3 1.7.58 2.6zm-6.45-10c-.6.2-1.06.4-1.53.52-.5.12-1.03.17-1.55.25-.95.15-1.9.25-2.8.56-1.6.54-2.32 1.6-2.14 3.13.16 1.27 1.04 2 2.7 2.18 3.38.4 5.32-1.34 5.32-4.74v-1.9zm74.74.98H237.1c-.15 2.38 1.06 4.33 3 4.94 2.45.78 5.07-.02 6.25-1.96.2-.34.4-.47.8-.46 1.44 0 2.9 0 4.47 0-.83 2.65-2.22 4.72-4.66 5.97-7.4 3.75-15.7-1.3-15.72-9.57 0-3.95 1.27-7.3 4.64-9.57 6.47-4.37 14.8-.63 15.94 7.1.17 1.13.22 2.26.15 3.55zm-5.76-3.7c-.7-3.33-2.28-4.6-5.17-4.3-2.27.24-3.9 2-3.95 4.3h9.13zM47.47 35.9V31.2c1.02.05 2 .12 2.98.12 1.7 0 2.8-1.33 2.5-3.03-.22-1.1-.74-2.15-1.14-3.2-2.02-5.45-4.06-10.88-6.1-16.3a63.16 63.16 0 0 1-.3-.83c2.02 0 3.95 0 5.88 0 .52 0 .47.54.57.85C53.25 13 54.62 17.2 56 21.4c.07.22.16.44.3.8 1.54-4.8 3.04-9.5 4.55-14.2h5.8c.2.3-.04.54-.13.78-2.76 7.46-5.53 14.92-8.3 22.37-1.33 3.58-3.13 4.88-6.95 4.96-1.26.05-2.52.02-3.8-.2zm145-7.12h-5.7V8.03h5.4v2.5c.28.15.34-.04.42-.15 2.7-3.7 7.78-3.45 10.48-2.02 2.07 1.1 2.88 3.06 3.03 5.22.35 5 .12 10 .12 15 0 .07-.06.12-.1.2h-5.52c-.2-.36-.12-.73-.12-1.1-.03-4 .04-7.98-.1-11.96-.1-3.03-2.07-4.34-5-3.58-1.58.42-2.5 1.66-2.78 3.66-.25 1.76-.14 3.52-.15 5.28-.02 2.53 0 5.07 0 7.7zm-45.55 0h-5.7V8.02h5.34v2.64c.42.1.45-.24.58-.4 2.4-3 7.45-3.82 10.7-1.74 2.06 1.33 2.73 3.44 2.8 5.67.12 4.8.05 9.58.07 14.38 0 .05-.06.1-.1.2h-5.52c-.23-.33-.13-.68-.13-1-.02-3.78-.02-7.56-.04-11.32a7.78 7.78 0 0 0-.13-1.38c-.38-2.07-1.37-3.03-3.2-3.1-2.24-.13-3.67.8-4.27 2.75-.35 1.17-.4 2.37-.4 3.58 0 3.47 0 6.93 0 10.48zm82.72-13.5h-5.52c-.2-.08-.14-.3-.2-.46-.43-1.7-1.5-2.74-3.25-3-1.8-.25-3.3.27-4.38 1.8-1.7 2.42-1.74 7.08-.1 9.53 1.05 1.54 2.53 2.03 4.3 1.8 1.6-.2 2.7-1.1 3.32-2.6.18-.45.28-.93.45-1.46h5.5c-.37 2.66-1.4 4.9-3.57 6.55-3.68 2.83-11.42 2.92-15.04-2.22-3.62-5.14-2.02-13.57 3.22-16.5 3.8-2.12 9.4-1.68 12.58 1.02 1.7 1.43 2.55 3.28 2.68 5.54z"/><path fill="#040404" d="M70.64 25.02v3.7c-.8.2-1.57.07-2.36.1V.15h2.5v11.42c.13 0 .2.03.22 0 2.17-5.22 11.35-5.9 14.63-.08 2.55 4.5 2.6 9.26.04 13.78-2.75 4.88-9.93 5.64-13.72 1.64-.48-.5-.8-1.13-1.3-1.88zm14.2-6.2c.04-1.35-.1-2.7-.5-4-.9-3.15-3-5.02-5.87-5.24-2.85-.2-5.45 1.24-6.6 3.85-1.45 3.27-1.47 6.62-.04 9.88 1.2 2.72 3.4 3.97 6.36 3.9 2.78-.04 4.58-1.5 5.7-3.97.63-1.4.87-2.88.94-4.4zm21.97-10.8l-2.13 5.72c-2.25 5.96-4.5 11.93-6.74 17.9a20.6 20.6 0 0 1-1.24 2.68c-.8 1.43-2.03 2.13-3.64 2.14-.88 0-1.8.16-2.67-.2v-2.1c.14.02.25.02.36.04 2.85.33 3.55-.16 4.8-2.77.84-1.74.9-3.28.1-5.13-2.43-5.7-4.67-11.52-7-17.3-.1-.28-.2-.57-.33-.92h2.74l6.78 17.55c1.1-3.04 2.16-5.93 3.2-8.82.96-2.63 1.92-5.26 2.83-7.9.22-.66.52-.98 1.25-.9.5.1 1.04.03 1.68.03z"/><path fill="#DF0336" d="M131.67 8h5.63v20.77h-5.63V8zm5.66-3.23h-5.64V.14h5.63v4.63z"/></svg>