<svg xmlns="http://www.w3.org/2000/svg" width="57" height="55" viewBox="0 0 57 55"><path d="M56.71 32.953c0-1.614-.662-3.142-1.79-4.246.806-1.021 1.253-2.282 1.263-3.618.01-1.535-.603-3.004-1.726-4.136-1.167-1.174-2.77-1.848-4.399-1.848H37.26l.824-5.339c.103-.674.155-1.363.155-2.047 0-5.281-3.565-11.42-8.162-11.42-1.33 0-2.625.469-3.647 1.321l-.474.395.667 8.775c.028.375-.001.746-.088 1.104-.087.359-.23.703-.425 1.021l-7.029 13.027-.264.225c-.174-1.188-1.198-2.104-2.433-2.104H2.752c-1.358 0-2.462 1.105-2.462 2.464v25.71c0 1.358 1.104 2.463 2.462 2.463h13.631c1.357 0 2.462-1.104 2.462-2.463v-1.295c.006.005.013.01.019.016 2.512 2.136 5.757 2.16 5.894 2.16l20.479-.008.065-.001c3.146-.175 5.61-2.778 5.61-5.926 0-.477-.056-.942-.166-1.396 2.144-.916 3.591-3.03 3.591-5.456 0-.803-.159-1.582-.467-2.307 1.742-1.058 2.84-2.954 2.84-5.071zM16.45 52.238c0 .034-.033.067-.066.067H2.752c-.034 0-.066-.033-.066-.067v-25.71c0-.034.033-.067.066-.067h13.631c.034 0 .066.033.066.067v25.71zm35.377-15.9l-1.624.506 1.023 1.358c.469.622.717 1.358.717 2.129 0 1.737-1.245 3.206-2.958 3.493l-1.625.271.76 1.462c.264.509.397 1.056.397 1.626 0 1.866-1.454 3.412-3.315 3.531l-20.439.008c-.061-.001-2.533-.049-4.345-1.59-.393-.335-.753-.57-1.134-.743l-.438-.199V29.296l2.131-1.822 7.194-13.335c.317-.523.55-1.089.693-1.68.146-.601.196-1.224.148-1.851l-.568-7.48c.495-.282 1.059-.434 1.633-.434 3.105 0 5.767 4.962 5.767 9.024 0 .563-.043 1.13-.128 1.684l-1.25 8.099h15.593c.995 0 1.979.415 2.699 1.14.67.675 1.037 1.538 1.03 2.431-.007 1.105-.521 2.125-1.409 2.798l-1.451 1.1 1.583.897c1.112.63 1.803 1.812 1.803 3.086 0 1.561-1 2.922-2.487 3.385z" fill="#fd5018"/></svg>