<?xml version="1.0" encoding="utf-8"?>
<!-- Generator: Adobe Illustrator 23.0.3, SVG Export Plug-In . SVG Version: 6.00 Build 0)  -->
<svg version="1.1" id="Capa_1" xmlns="http://www.w3.org/2000/svg" xmlns:xlink="http://www.w3.org/1999/xlink" x="0px" y="0px"
	 viewBox="0 0 486.6 486.6" style="enable-background:new 0 0 486.6 486.6;" xml:space="preserve">
<g>
	<path d="M146.1,320.4h268.1c30.4,0,55.2-24.8,55.2-55.2V152.4c0-0.1,0-0.3,0-0.4c0-0.3,0-0.5,0-0.8c0-0.2,0-0.4-0.1-0.6
		c0-0.2-0.1-0.5-0.1-0.7s-0.1-0.4-0.1-0.6c-0.1-0.2-0.1-0.4-0.2-0.7c-0.1-0.2-0.1-0.4-0.2-0.6c-0.1-0.2-0.1-0.4-0.2-0.6
		c-0.1-0.2-0.2-0.4-0.3-0.7c-0.1-0.2-0.2-0.4-0.3-0.5c-0.1-0.2-0.2-0.4-0.3-0.6c-0.1-0.2-0.2-0.3-0.3-0.5c-0.1-0.2-0.3-0.4-0.4-0.6
		c-0.1-0.2-0.2-0.3-0.4-0.5c-0.1-0.2-0.3-0.3-0.4-0.5s-0.3-0.3-0.4-0.5s-0.3-0.3-0.4-0.4c-0.2-0.2-0.3-0.3-0.5-0.5
		c-0.2-0.1-0.3-0.3-0.5-0.4c-0.2-0.1-0.4-0.3-0.6-0.4c-0.2-0.1-0.3-0.2-0.5-0.3s-0.4-0.2-0.6-0.4c-0.2-0.1-0.4-0.2-0.6-0.3
		s-0.4-0.2-0.6-0.3s-0.4-0.2-0.6-0.3s-0.4-0.1-0.6-0.2c-0.2-0.1-0.5-0.2-0.7-0.2s-0.4-0.1-0.5-0.1c-0.3-0.1-0.5-0.1-0.8-0.1
		c-0.1,0-0.2-0.1-0.4-0.1L118,92.1V44.7c0-0.5,0-1-0.1-1.4c0-0.1,0-0.2-0.1-0.4c0-0.3-0.1-0.6-0.1-0.9c-0.1-0.3-0.1-0.5-0.2-0.8
		c0-0.2-0.1-0.3-0.1-0.5c-0.1-0.3-0.2-0.6-0.3-0.9c0-0.1-0.1-0.3-0.1-0.4c-0.1-0.3-0.2-0.5-0.4-0.8c-0.1-0.1-0.1-0.3-0.2-0.4
		c-0.1-0.2-0.2-0.4-0.4-0.6c-0.1-0.2-0.2-0.3-0.3-0.5s-0.2-0.3-0.3-0.5s-0.3-0.4-0.4-0.6c-0.1-0.1-0.2-0.2-0.3-0.3
		c-0.2-0.2-0.4-0.4-0.6-0.6c-0.1-0.1-0.2-0.2-0.3-0.3c-0.2-0.2-0.4-0.4-0.7-0.6c-0.1-0.1-0.3-0.2-0.4-0.3c-0.2-0.2-0.4-0.3-0.6-0.5
		c-0.3-0.2-0.6-0.4-0.8-0.5c-0.1-0.1-0.2-0.1-0.3-0.2c-0.4-0.2-0.9-0.4-1.3-0.6L36,1.1c-6.9-2.9-14.8,0.3-17.7,7.2
		s0.3,14.8,7.2,17.7l65.4,27.6v61.2v9.7v74.4v66.5v84c0,28,21,51.2,48.1,54.7c-4.9,8.2-7.8,17.8-7.8,28c0,30.1,24.5,54.5,54.5,54.5
		s54.5-24.5,54.5-54.5c0-10-2.7-19.5-7.5-27.5h121.4c-4.8,8.1-7.5,17.5-7.5,27.5c0,30.1,24.5,54.5,54.5,54.5s54.5-24.5,54.5-54.5
		s-24.5-54.5-54.5-54.5h-255c-15.6,0-28.2-12.7-28.2-28.2v-36.6C126.1,317.6,135.8,320.4,146.1,320.4z M213.3,432
		c0,15.2-12.4,27.5-27.5,27.5s-27.5-12.4-27.5-27.5s12.4-27.5,27.5-27.5S213.3,416.8,213.3,432z M428.7,432
		c0,15.2-12.4,27.5-27.5,27.5s-27.5-12.4-27.5-27.5s12.4-27.5,27.5-27.5S428.7,416.8,428.7,432z M414.2,293.4H146.1
		c-15.6,0-28.2-12.7-28.2-28.2v-66.5v-74.4v-5L442.4,164v101.1C442.4,280.8,429.7,293.4,414.2,293.4z"/>
</g>
</svg>
