<svg xmlns="http://www.w3.org/2000/svg" width="50" height="50" viewBox="0 0 50 50"><path fill="#0D1821" d="M25 50C11.215 50 0 38.785 0 25S11.215 0 25 0s25 11.215 25 25-11.215 25-25 25zm0-48.193C12.211 1.807 1.807 12.212 1.807 25c0 12.789 10.404 23.193 23.193 23.193 12.788 0 23.193-10.405 23.193-23.193C48.193 12.212 37.788 1.807 25 1.807z"/><path fill="#0D1821" d="M28.905 22.372l-2.088 3.348a4.714 4.714 0 0 0-.792 2.664v2.808H24.01v-3.06c0-1.116.36-2.088.9-2.952l2.088-3.348c.792-1.26.936-2.196.936-3.636 0-1.944-.36-2.844-1.008-3.527-.468-.504-1.116-.792-1.979-.792-.864 0-1.477.288-1.944.756-.792.792-.936 1.98-.936 3.096h-2.016c0-1.8.323-3.276 1.403-4.319.828-.828 2.052-1.332 3.492-1.332 1.476 0 2.627.396 3.527 1.332.972 1.008 1.476 2.16 1.476 4.823 0 1.692-.179 2.771-1.044 4.139zm-5.218 12.851h2.699v2.7h-2.699z"/></svg>