<svg xmlns="http://www.w3.org/2000/svg" width="32" height="32" viewBox="0 0 32 32"><path fill="#01B0FF" d="M32 30.04l-7.418-7.419c4.457-5.442 4.147-13.484-.932-18.564C20.946 1.352 17.401 0 13.855 0c-3.547 0-7.092 1.352-9.798 4.058-5.41 5.411-5.41 14.182-.001 19.592 2.705 2.706 6.252 4.059 9.798 4.059 3.112 0 6.223-1.043 8.766-3.127L30.04 32 32 30.04zM5.902 21.804C1.52 17.421 1.52 10.288 5.903 5.903c2.124-2.124 4.948-3.294 7.952-3.294s5.826 1.169 7.949 3.292c4.384 4.385 4.384 11.52 0 15.904-2.123 2.124-4.946 3.293-7.95 3.293s-5.828-1.169-7.952-3.294z"/></svg>